/* XPM */
static char *dummy[]={
"32 32 8 1",
"f c #523b40",
"# c #5880cc",
". c #62abd4",
"e c #802954",
"a c #9bf0fd",
"d c #d01946",
"c c #e84444",
"b c #ffffff",
".##.aabba.##.##..aa.###.....###.",
"#...#.abaa.#.....aa...........##",
".........aa....aaaaa............",
"........abbaaaaaa.aaa...........",
"......aabba...###...ca..........",
"...aaaa..##########dc.abba......",
"aabba.############ddcc#.abbba..a",
"a...aa.###..#..##dddcc##abbbbbaa",
".##..aaa......##ddddcc.abba..###",
"######.aaaa.....ddddccaaa..#####",
"#######.a.aaadddddddcccc########",
".....##.a##.aeeeedddcccc#...##..",
"#......aa.###eeeeeedcccc.......#",
".dccccca.##..eeeeeeeddddd.......",
".dccccccaaaaaeeeeeedddddd.......",
".ddcccccca..#eeeeeedddddd.......",
".dddcccccc###eeeeeeddddd........",
"..ddeedddd..eeeeeefdddddbbaaaaa.",
"aaddeeddddd#eeeeeffeddddba...aaa",
"..ddeeddddddeeeeeffedddda.#####.",
"###deeedddddeeeffeeddddd.#######",
"####eeeedddeeeefffdddddd########",
".###..eeeedefeeffeedddd#...###..",
"###...eeeedeffeffeedddd.ddddccd.",
"........eeeeefeffeedddeeddddddd.",
"........eeeeeeeffeedddeddddedd..",
".........aaaaeeeeeedddeeeeeee...",
"aaaaaaaabba..eeeeeeedbaeeeee...a",
"aa.##..aaa.###...#.aa..aaba....a",
".######..aaa.......aa.#..aaabbba",
"a.......aa.aaaaaabbb.#####...aaa",
"aaaa...aa.###.aabbba##########.."};
