/* XPM */
static char *dummy[]={
"32 32 9 1",
"g c #3d253b",
"d c #523b40",
"# c #5880cc",
". c #62abd4",
"f c #895a45",
"a c #9bf0fd",
"c c #bf704d",
"e c #e6deca",
"b c #ffffff",
".##.aabba.##.##..aa.###.....###.",
"#...#.abaa.#.....aa...........##",
".........aa....aaaaa............",
"........abbacaaaa.aaa...........",
"......aabbadcd###...aa..........",
"...aaaa..##ddd#######.abba......",
"aabba.#####cccecc######.abbba..a",
"a...aa.###..feeec..##.##abbbbbaa",
".##..aaa..eeeeeee#.cc..abba..###",
"######.aaceeeeeee..cc.aaa..#####",
"#######.acceeeeee..ccaa.########",
".....##.a##eeeeee..cca.##...##..",
"#......aa.#eeeeeebaccee........#",
".......a.##eeeeebaaccee.........",
"......acccceeeee..acceee........",
"....cccddddeeeecccccceeeeee.....",
"....ccdddddeeeddddcccceeeeee....",
"...cddddddedcddddddcccccbbccccc.",
"aabcdddddddddddddddddcccffff.aaa",
"..gccddddddddddddddddccfff#####.",
"##gfccddddddddddddccccfffg######",
"#ggfffcccccccccccccffffgggg#####",
".ggffffcccccccccfffffffgggg###..",
"#gggffffffffffffffffffggggg#....",
"..ggfffffffffffffffffggggg......",
"..ggggggfffffffggggggggggg......",
".....gggggggggggggggggg.........",
"aaaaaaggggggggggggggggaa.......a",
"aa.##..aaa.###...#.aa..aaba....a",
".######..aaa.......aa.#..aaabbba",
"a.......aa.aaaaaabbb.#####...aaa",
"aaaa...aa.###.aabbba##########.."};
