/* XPM */
static char *dummy[]={
"32 32 9 1",
"g c #3d253b",
"d c #523b40",
"# c #5880cc",
". c #62abd4",
"f c #895a45",
"a c #9bf0fd",
"c c #bf704d",
"e c #e6deca",
"b c #ffffff",
".##.aabba.##.##..aa.###.....###.",
"#...#.abaa.#....caa...........##",
".........aa....acaaa............",
"........abbaaaaac.aaa...........",
"......aabba...cdddc.aa..........",
"...aaaa..#####ccccc##.abba......",
"aabba.######cc##c######.abbba..a",
"a...aa.###..ccccc..##.##abbbbbaa",
".##..aaa.....eccc#.....abba..###",
"######.aaaa..eeeccccc.aaa..#####",
"#######.a.aaaeeeceeccaa.########",
".....##.a##.aeeeceeeaa.##...##..",
"#......aa.###eeeceee...........#",
".......a.##..eeeceee............",
"......aaaaaafeeeceeef...........",
"......aaaa.ffeeeceeeff..........",
".....aa..#ccddeeceeedfca........",
"...aa.###.ccddddceeedccabbaaaaa.",
"aababba...ccddddcddddccbba...aaa",
"....aaaa..ccddddeddddccaa.#####.",
"#####..aagccdddeeedddccg.#######",
"########.gfcdddeeedddcfg########",
".###...##gfcdddeeedddcfg...###..",
"###......gffcddeeeddccfg..##....",
".........ggfccdeedddcfgg........",
".........ggfccddeddccfgg........",
".........aggffccecccffg.........",
"aaaaaaaabbggfffcecfffgga.......a",
"aa.##..aaaggggffcffggggaaba....a",
".######..aaaggffcffgg.#..aaabbba",
"a.......aa.aggggcgggg#####...aaa",
"aaaa...aa.###ggggggg##########.."};
