/* XPM */
static char *c2hhZG93X2NlbnRlcg__[] = {
/* columns rows colors chars-per-pixel */
"32 32 5 1 ",
"  c #56587B",
". c #5880CC",
"X c #62ABD4",
"o c #9BF0FD",
"O c white",
/* pixels */
"X..XooOOoX..X..XXooX...XXXXX...X",
".XXX.XoOooX.XXXXXooXXXXXXXXXXX..",
"XXXXXXXXXooX...oooooXXXXXXXXXXXX",
"XXXXXXXXoOOoXXXXX.XXo.XXXXXXXXXX",
"XXXXXXooOOX...   ...XX..XXXXXXXX",
"XXXoooo..            .XOOoXXXXXX",
"ooOOo.                 .XOOOoXXo",
"oXXXoo.   .. ..  ..  .  XOOOOOoo",
"X..X.XXX......    .....XooX.X...",
"...   .XXXX...........XXX..  ...",
"..     .X.XXX.......XXX.      ..",
"XXX..  .X  .XXX....XXX.  ...  XX",
".X.....XX.   .XoooXX..........X.",
"XX.....X.  ..XoooXX...........XX",
"XX....XXXXXXXXX...XXX.........XX",
"XX....XXXX..       .XX........XX",
"XX...XX..            .XX......XX",
"XX.XX.   ...          .XooXXXooX",
"ooOXooX....  ...    ...ooX...ooo",
"XX..XXXX...............XX.     X",
"..   ..XXX............XX.     ..",
"..      .XX..........XX.      ..",
"X.. ...  ..X.......XX.. ...  .XX",
"...X........XX...XXX......  XXXX",
"XXXXX........XooXXX........XXXXX",
"XXXXX........XoX..XX.......XXXXX",
"XXXXXX...XXXXXX.  .XoX....XXXXXX",
"ooooooooOOX..      .XOooXXXXXXXo",
"ooX..XXooo.   ... .Xo.XooOoXXXXo",
"X......XXooo.......ooX.XXoooOOOo",
"oXXXXXXXooXooooooOOOX.....XXXooo",
"ooooXXXooX...XooOOOo..........XX"
};
