/* XPM */
static char *a466df01b6b24bc49a6ac2a78cfbb7a4zvVzKaEwaqhic1sP[] = {
/* columns rows colors chars-per-pixel */
"48 48 215 2 ",
"   			  c #2B040D",
".  			  c #2A090F",
"X  			  c #27040B",
"o  			  c #2D0711",
"O  			  c #2C0C13",
"+  			  c #210C15",
"@  			  c #320C15",
"#  			  c #340E19",
"$  			  c #390E19",
"%  			  c #390B16",
"&  			  c #2F1016",
"*  			  c #23151B",
"=  			  c #2D131B",
"-  			  c #241C1E",
";  			  c #2A1A1E",
":  			  c #261116",
">  			  c #301117",
",  			  c #34141C",
"<  			  c #39131D",
"1  			  c #39181F",
"2  			  c #251D21",
"3  			  c #2A1D22",
"4  			  c #321720",
"5  			  c #3A1620",
"6  			  c #331C24",
"7  			  c #3C1B23",
"8  			  c #391F28",
"9  			  c #262023",
"0  			  c #2C2225",
"q  			  c #2E2429",
"w  			  c #332126",
"e  			  c #3D2126",
"r  			  c #33252A",
"t  			  c #3B242B",
"y  			  c #35292D",
"u  			  c #3B282E",
"i  			  c #362B31",
"p  			  c #3C2C31",
"a  			  c #3D3136",
"s  			  c #3E3339",
"d  			  c #41141F",
"f  			  c #421B25",
"g  			  c #461F28",
"h  			  c #491E2B",
"j  c #451824",
"k  c #43242B",
"l  c #4A232C",
"z  c #46282E",
"x  c #48292F",
"c  c #412027",
"v  c #432730",
"b  c #4B2630",
"n  c #432D34",
"m  c #4B2C33",
"M  c #4A2F38",
"N  c #522C34",
"B  c #552A35",
"V  c #423235",
"C  c #4E3136",
"Z  c #43353A",
"A  c #4B343B",
"S  c #45393D",
"D  c #4B383F",
"F  c #53343B",
"G  c #5A333C",
"H  c #55393E",
"J  c #62323E",
"K  c #463A40",
"L  c #4B3D42",
"P  c #553641",
"I  c #5B3641",
"U  c #533B42",
"Y  c #5B3B43",
"T  c #593F48",
"R  c #623C45",
"E  c #643E4B",
"W  c #683F4D",
"Q  c #4C4045",
"!  c #4E4148",
"~  c #524147",
"^  c #5D4146",
"/  c #53454A",
"(  c #5D434B",
")  c #58484B",
"_  c #5A4D52",
"`  c #62434B",
"'  c #6A434E",
"]  c #61484E",
"[  c #6C4552",
"{  c #644C52",
"}  c #6B4C54",
"|  c #724654",
" . c #734B55",
".. c #744D5A",
"X. c #6E535B",
"o. c #665157",
"O. c #74545D",
"+. c #7B545E",
"@. c #70595F",
"#. c #7C5462",
"$. c #745A61",
"%. c #7B5C65",
"&. c #7B5A65",
"*. c #7C6169",
"=. c #776A71",
"-. c #845D6A",
";. c #875A67",
":. c #83636C",
">. c #8A636F",
",. c #81686E",
"<. c #8B6672",
"1. c #866B73",
"2. c #8C6A74",
"3. c #8E6E79",
"4. c #936975",
"5. c #946D7A",
"6. c #976A78",
"7. c #8C737B",
"8. c #897178",
"9. c #94757D",
"0. c #9B737D",
"q. c #92757B",
"w. c #A1727D",
"e. c #947680",
"r. c #9C7582",
"t. c #947A82",
"y. c #9B7A84",
"u. c #9C7E88",
"i. c #897A81",
"p. c #A37684",
"a. c #A27986",
"s. c #A47D8A",
"d. c #AC7D88",
"f. c #9E848D",
"g. c #94868D",
"h. c #A4848D",
"j. c #AA828D",
"k. c #AB8591",
"l. c #A68992",
"z. c #AD8B93",
"x. c #A78B94",
"c. c #B58B96",
"v. c #B48D9A",
"b. c #B38896",
"n. c #AE939C",
"m. c #B5949D",
"M. c #BA969D",
"N. c #BB94A1",
"B. c #B49AA2",
"V. c #BC9BA4",
"C. c #BE9EA9",
"Z. c #B695A0",
"A. c #AE9DA5",
"S. c #BBA1AA",
"D. c #B1A6AC",
"F. c #C1939E",
"G. c #C295A3",
"H. c #C39BA6",
"J. c #C39EAA",
"K. c #CA9EAD",
"L. c #C5A3AD",
"P. c #CAA3AE",
"I. c #D2A2AE",
"U. c #C4A6B0",
"Y. c #CCA4B1",
"T. c #CDAAB5",
"R. c #CEADB8",
"E. c #C5A9B3",
"W. c #D0A7B4",
"Q. c #D3ADB9",
"!. c #DBAEB8",
"~. c #D7ABB6",
"^. c #CCB2B9",
"/. c #C3B6BD",
"(. c #D4B2BC",
"). c #DAB4BE",
"_. c #E2B3BE",
"`. c #DBB6C2",
"'. c #DCBBC5",
"]. c #DCBFC9",
"[. c #D5B8C2",
"{. c #E4BBC5",
"}. c #E3BDC9",
"|. c #E8BBC8",
" X c #DCC3CB",
".X c #E3C3CC",
"XX c #EBC4CD",
"oX c #F1C3CD",
"OX c #ECC5D2",
"+X c #EBCBD4",
"@X c #EECED9",
"#X c #E6CBD3",
"$X c #F4CAD5",
"%X c #F8CCD6",
"&X c #F4CCDA",
"*X c #FACFDB",
"=X c #F3C6D0",
"-X c #EBD0D7",
";X c #EDD3DA",
":X c #E5D1DA",
">X c #F4D3DD",
",X c #FCD3DD",
"<X c #F3D8DF",
"1X c #F7D7E2",
"2X c #FDD5E3",
"3X c #F5DBE2",
"4X c #FEDAE5",
"5X c #FFDDE9",
"6X c #FAE1E7",
"7X c #FEE3EC",
"8X c #FFE8EF",
"9X c #F6E7EE",
"0X c #FFE5F2",
"qX c #FFEBF3",
"wX c #FFECF9",
/* pixels */
"l l l g @ o R l O O o O O , m m 7 t t t e t t u t 6 6 u n n n n V S S Z i y q 3 r 0 0 3 2 9 9 9 ",
"f N N l @ ,  .G O O . O O , m m t t t e 8 w e t w 6 6 r t p p p V Z Z u r 0 0 3 0 0 3 2 2 2 9 9 ",
"l g f f @ , +.} O O o O O 1 C C v t 6 4 4 3 4 6 w w w w w t t t V V V r ; - 3 9 3 3 2 2 2 2 2 2 ",
"R G l g 1 f +.G @ > O O & e H C n t 4 = = = 3 3 w u p w w u n u p V p w ; - ; 9 2 2 2 2 2 2 2 2 ",
"f N N l f G <.N , 5 & O > k Y C v 7 , , 4 6 w t t n n t t n n n n V V r ; ; 3 3 2 2 2 2 2 2 2 2 ",
"l f f l l N q.:.7 f > O > z ^ F 6 , = 4 6 6 t n p p p u p n n n V V p r 3 ; 3 3 2 2 2 2 2 2 2 2 ",
"0.' l G N l 2.2.k k , o O x ^ C 7 , 4 7 w 6 e n n p u n n n M V A V u w ; 3 3 3 2 2 2 2 2 3 2 2 ",
"0.+.N f l Y 5.' z l , . O x ^ C k t k v v e e n n p t n A A A A A n t ; ; ; 3 - 2 2 2 2 2 2 2 2 ",
"0.N # $ f G z.O.> c , & > k ^ m v v m m A F A n U U t P *.*.X.X.$.^ V : w 3 3 9 - - 2 2 2 2 2 2 ",
"l < $ o   N M.0.o , > O > m ^ F F P P P P F M v U X.( ] e.C.R.E.h.*.( ; 6 ; * * - - 2 2 2 2 2 2 ",
"f < <   X N V.z.O O > o > m H F F E #.<.3.3.1.:.1.B.C.L..X1X1X.XL.t.X.t 3 ; - 2 - - 2 2 2 2 2 2 ",
"l @ X   > G H.P.> o , O > F F F E -.b.(.OX@X@X+X@X7X4X5X7X2X>X&X(.x.:.A 3 ; - 0 - - 2 2 2 2 2 2 ",
"@ @ < < 1 G z.L.> . , & , G H Y W >.N.}.*X2X2X4X0X7X2X5X5X&X1X4X(.m.q.] 6 ; * 2 - - 2 2 2 2 2 2 ",
"g # X f +.c.V.2.1 > 5 , 5 m H Y #.0.H.|.,X4X5X7X>X4X4X5X7X4X4X$X).m.u.X.w 3 - 9 - - 2 2 2 2 2 2 ",
"f l f < f N b @ 7 7 7 7 7 k Y Y #.6.G.{.&X2X4X5X5X0X5X5X4X4X5X&X`.m.y.O.w r 0 0 - - 2 2 2 2 2 2 ",
"< 5 < 1 , < 1 5 1 7 , 7 7 c ` ` -.p.K.OX2X4X4X5X4X5X4X5X4X2X5X&X.XV.9.O.6 t 3 2 - - 2 2 2 2 2 2 ",
"5 5 5 5 5 7 5 5 7 7 , 7 , m P ` ;.b.K.2X2X4X0X2X5X0X5X2X4X5X2X>X.XE.e.( L L 6 - 2 2 2 2 - - - - ",
"1 1 1 1 5 , , , 5 5 , t 7 Y ` ` r.K.OX0X2X2X2X4X2X2X7X7X0X4X1X+X`.C.3.e.U.8.p 0 3 2 - - * - 2 9 ",
"1 5 5 5 5 , , , 5 5 > 7 c ` ] Y ;.p.Y.|.,XwX5X4X0XqX0X`.C.L.'.R.C.R.y.n.#X$.* r 0 0 3 2 - - 2 2 ",
"7 7 7 7 5 5 5 5 7 7 , 7 7 Y ` F R | ..#.s.|.4X5X4XN.#.[ -.Z.m.%.y.R.f.x.E.n : p y y q 0 0 9 - - ",
"7 7 7 5 7 5 5 5 7 c 5 7 , P ` ` ' #.[ [ +.>.P.$XL.<.[ 2.$.-.%.<.C.'.h.S.S.p 6 ; y r r q q 0 2 * ",
"5 5 5 5 5 5 , , , 7 5 5 > F } O.[ ;.;.s.a.| k.OXY.k.y.L.N.L.T.+X7X+Xl.].S.n u * 0 0 0 0 q q 9 - ",
"5 5 5 5 5 5 5 5 , 5 , 5 = C } :.-.-.4.b.v.;.b.5X5X>XOX'.}.&X4X4X7X].u. Xl.p Z L 0 3 - 2 0 q 0 0 ",
"5 5 5 5 7 7 7 7 7 5 , 5 O v ] %.k.b.K.Y.Y.a.N.0X2X4X0X&X0X>X7X4X1X Xu.[.t.u p S r 0 2 - 9 0 q q ",
"5 5 5 7 5 , > # O > = = 7 m ` &.z.`.OX&XG.4.T.4X4X2X4X4X4X7X7X4X@XB.1.t.) t V S Q y 3 3 0 r r 3 ",
"5 1 1 , > # O O o # > O > 5 m ' 5.K.&X4XJ.0.Y.4X5X2X5X7X5X5X4X>X[.h.T A D p V y _ S y 0 0 r y 0 ",
" ,1 # O O O O O O , , , , O 7 Y #.j..X&Xm.r.Q.wX5X&XOX>X4X5X2XOXV.7.n = U u D S / S i r 0 i a y ",
", , @ O o o O O > 5 7 t 7 > 5 F ..-.N.T.k.r.N.}.`.'.OX>X4X4XOXT.x.$.t 4 { t L L Z Z s i r a a r ",
", , , # > > , , , 5 5 t c , , k ..[ <.s.r.4.2.y.N.(.&X1X*X&X`.v.u.] 6 6 ) p L w L L L a r y i 3 ",
", , , 1 5 5 7 7 7 8 7 t k 7 , , [ [ ..#.O...r.Y.'.`.Q.P.W.}.Q.k.<.X.n t V V L w / L Z y 3 q y 0 ",
", , 1 5 7 7 k z c b z c z k 5 , F ..[ .. .' j.OXOXW.v.b.H.Q.K.s.%.1.A D p D S L Q Z i r 3 q u u ",
"< , 1 5 7 c v m c m m k v l 7 5 f ' E :.r.#.:.s.v.v.Y.'.}.T.b.5.*.7.8 A D ~ y / Q a i i r y i i ",
"5 # , 5 k v e m m H 7 x c . l l l s.v.#.5.>.#.j.k.z.(.`.(.).>XR.x.B.H A n / V a L Q Z i y q r i ",
", 5 7 7 c t 7 k e z k O 7 R H.P.0.2X5Xr.>.k.j.z.L.Q.>X@XT.'.7X>X+X7XB.{ U ) S a K S i q y q 3 q ",
"1 > o > c m m e e k , > 5 M.4X,XQ.5X5X0. .z.).,X,X5X7X}.z.(.7X7X4XwX;X{ A Z p S a a r q i y q 0 ",
"1 7 5 7 5 7 z 7 z l 1 f ` XX,X{.&X&X}.} F &.v.+X.X].V.9.&.(.4X4X>X3X6X@.A n u _ a a i i s p y y ",
"< $ $ 5 5 7 z 1 l f N l c.%X,X|.&X5X}.m m Y O.,.<.%.` F ` ].7X7X3X6X8Xq.A A r / Z L K S S a y i ",
"< o f f $ 1 5 f k < l  .XX7X=XXX@X7XL.7 F Y Y Y Y Y P P O.+X7X6X-X7X8XB.V U n V p K L L L Z s S ",
"< b p.a.' l @ f f < l c.,X7X_.{.7X4Xe.7 m F Y ` ` } O.} :.-X7X4X;XqX7X XU D L p u S ! ! ! K Z Q ",
"j B W.4XOXN.G @ d $ | !.4X%XoX,X5X<X&.7 5 Y { ] ^ ] } ( *.+X8XqX4X0X6X3XU ; p w V ~ / / ! K s S ",
"$ 5 ' c.oX%Xj.l d % w.XX,X=X%X4X,X4XF 1 c A X.O.%.&.X.X.8..X8X0X6X6XqX6X1.; V u u D Z p Z L s i ",
"h < < I a.{.!.0.j % d.,X7X%X%X%X7XL.v m z > &.,.%.O.%.$.1.<X7X>X7X6X6X7X7.n A t A r p L K s s s ",
"@ < 5 h | v.!.G.;.J G.*X4X|.%X,X,X(.'.4XE.c Y &.O.3.^.V.1.+X7X0X>X6X6X0Xu.o.~ t A o.l./././.g.r ",
"$ f h j b +.c.!.I.4._.%X%X~.%X4X5XQ.>X7X>XO.m $.:.l.7X8Xx..X7X7X3X6X8X7X,.t t D 7.^.0X0X9XqXD.i ",
"f < $ j h G 6.~.I.p.=X,X,X).%X,XOXm.XX,X5XXXr.m.@XJ.C.'.h.(.qX7X7X<X0X7X7.e } B. X3X:XA.i.=._ i ",
"$ o $ h h j | F.d.d.,X4X4XXX,X,XOXH.4X,X`.7XXX2X4XT.L.>X]..X7X>X7X3XqX7X^.B. X0X6X Xt.L r * * q ",
", 1 < 5 < $ G 4.;.d.,X2X,X%X,X4X4XOX7X5XOX0X,XOX4X.X>X0X1X+X7X0X7X8XqX6X#X7X0X3X;Xf.D * 2 i Z Z ",
"@ 5 < 1 l l h B J w.%X,X,X,X,X4X,X7X4X,X7X4X,X4X4X@X7X4X7X4X7X7X8X7X6X8X'.;X3XwXS.~ + 3 p s K a "
};
