/* XPM */
static char * rendu_xpm[] = {
"32 32 9 1",
" 	c #62ABD4",
".	c #5880CC",
"+	c #9BF0FD",
"@	c #FFFFFF",
"#	c #BF704D",
"$	c #523B40",
"%	c #E6DECA",
"&	c #895A45",
"*	c #3D253B",
" .. ++@@+ .. ..  ++ ...     ... ",
".   . +@++ .   ##++           ..",
"         ++    ##+++            ",
"        +@@+++####+++           ",
"      ++@@+  #$##$# ++          ",
"   ++++  ....######.. +@@+      ",
"++@@+ ........####..... +@@@+  +",
"+   ++ ... ##  ##  .. ..+@@@@@++",
" ..  +++   ######.     +@@+  ...",
"...... ++++ %####     +++  .....",
"....... + ++%%%#####+++ ........",
"     .. +.. %%%##%%##+ ..   ..  ",
".      ++ .&%%%##%%%%          .",
"       + ..&%%%##%%%%           ",
"      ++++&&%%%##%%%%&          ",
"      ++++&&%%%##%%%%&          ",
"     ++  ##$%%%##%%%%##+        ",
"   ++ ...##$%%%##%%%%##+@@+++++ ",
"++@+@@+ ###$%%%##%%%%###@+   +++",
"    ++++###$$%%##%%%%###+ ..... ",
".....  +###$$$$##$$%%### .......",
".......*###$$$$$$$$$$###*.......",
" ...   *###$$$$$$$$$$###*  ...  ",
"...    *###$$$$$$$$$$###* ..    ",
"       *&####$$$$$$####&*       ",
"       *&&&##########&&&*       ",
"       *&&&&########&&&&*       ",
"++++++++*&&&&&&&&&&&&&&*       +",
"++ ..  +**&&&&&&&&&&&&**+@+    +",
" ...... ***&&&&&&&&&&*** +++@@@+",
"+       +***&&&&&&&&&**...   +++",
"++++   ++ ************........  "};
