/* XPM */
static char *dummy[]={
"32 32 7 1",
"# c #5880cc",
"e c #606060",
". c #62abd4",
"c c #9a8571",
"a c #9bf0fd",
"d c #a7acba",
"b c #ffffff",
".##.aabba.##.##..aa.###.....###.",
"#...#.abaa.#.....aa...........##",
".........aa....aaaaa............",
"........abbaaaaaa.aaa...........",
"......aabba...###...aa..........",
"...aaaa..############.abba......",
"aabba.#################.abbba..a",
"a...aa.###..#..##..##.##abbbbbaa",
".##..aaa......#cdddddddddddc.###",
"######.aaaa...cdddddddddddddc###",
"#######.a.aaccddddddddddddddcc##",
".....##.a##eccdddddddddddddddc..",
"#......aa.#eccddddddddddddddce.#",
".......a.##eccccddddddddddddee..",
"......aeeeeeddddddddcccceeee....",
"......eecccccdddddccceeee.......",
".....eecccccccccccccccee........",
"...aeecccccddddddddddccebbaaaaa.",
"aabaccccddddddddddddddcdddcc.aaa",
"...eccccddddddddddddddddddcc###.",
"###eccccdddddddddddddcddddcc####",
"###eccccdddddddddddddcdddccc####",
".#eeecccccccccccccccccccceee##..",
"##eeeecccccccccccccccceeeeee....",
"..eeeeeccccccccccccceeeeeeee....",
"...eeeeeeecccccceeeeeeeeeee.....",
"....eeeeeeeeeeeeeeeeeee.........",
"aaaaaaaaeeeeeeeeeee.abaa.......a",
"aa.##..aaa.###...#.aa..aaba....a",
".######..aaa.......aa.#..aaabbba",
"a.......aa.aaaaaabbb.#####...aaa",
"aaaa...aa.###.aabbba##########.."};
