/* XPM */
static char *dummy[]={
"32 32 9 1",
"g c #3d253b",
"d c #523b40",
"# c #5880cc",
". c #62abd4",
"f c #895a45",
"a c #9bf0fd",
"c c #bf704d",
"e c #e6deca",
"b c #ffffff",
".###.....###.aa..##.##.abbaa.##.",
"##...........aa.....#.aaba.#...#",
"............aaaaa....aa.........",
"...........aaa.aaaacabba........",
"..........aa...###dcdabbaa......",
"......abba.#######ddd##..aaaa...",
"a..abbba.######cceccc#####.abbaa",
"aabbbbba##.##..ceeef..###.aa...a",
"###..abba..cc.#eeeeeee..aaa..##.",
"#####..aaa.cc..eeeeeeecaa.######",
"########.aacc..eeeeeecca.#######",
"..##...##.acc..eeeeee##a.##.....",
"#........eeccabeeeeee#.aa......#",
".........eeccaabeeeee##.a.......",
"........eeecca..eeeeecccca......",
".....eeeeeecccccceeeeddddccc....",
"....eeeeeeccccddddeeedddddcc....",
".cccccbbcccccddddddcdeddddddc...",
"aaa.ffffcccdddddddddddddddddcbaa",
".#####fffccddddddddddddddddccg..",
"######gfffccccddddddddddddccfg##",
"#####ggggffffcccccccccccccfffgg#",
"..###ggggfffffffcccccccccffffgg.",
"....#gggggffffffffffffffffffggg#",
"......gggggfffffffffffffffffgg..",
"......gggggggggggfffffffgggggg..",
".........gggggggggggggggggg.....",
"a.......aaggggggggggggggggaaaaaa",
"a....abaa..aa.#...###.aaa..##.aa",
"abbbaaa..#.aa.......aaa..######.",
"aaa...#####.bbbaaaaaa.aa.......a",
"..##########abbbaa.###.aa...aaaa"};
